<svg version="1.1" xmlns="http://www.w3.org/2000/svg" viewBox="0 0 2736.2037888340546 2322.6775863384714" width="2736.2037888340546" height="2322.6775863384714">
  <!-- svg-source:excalidraw -->
  
  <defs>
    <style class="style-fonts">
      @font-face {
        font-family: "Virgil";
        src: url("https://excalidraw.com/Virgil.woff2");
      }
      @font-face {
        font-family: "Cascadia";
        src: url("https://excalidraw.com/Cascadia.woff2");
      }
    </style>
    
  </defs>
  <rect x="0" y="0" width="2736.2037888340546" height="2322.6775863384714" fill="#ffffff"></rect><g stroke-linecap="round" transform="translate(10 182.03746504057563) rotate(0 1358.1018944170273 990.777502168323)"><path d="M32 0 M32 0 C965.94 -4.66, 1898.17 -4.06, 2684.2 0 M32 0 C906.32 -1.79, 1779.96 -1.69, 2684.2 0 M2684.2 0 C2703.56 1.53, 2715.32 11.45, 2716.2 32 M2684.2 0 C2706.64 0.29, 2714 8.37, 2716.2 32 M2716.2 32 C2712.3 515.81, 2713.42 1001.69, 2716.2 1949.56 M2716.2 32 C2720.38 645.03, 2720.45 1259.02, 2716.2 1949.56 M2716.2 1949.56 C2717.72 1969.98, 2704.45 1982.05, 2684.2 1981.56 M2716.2 1949.56 C2715.38 1969.55, 2707.45 1983.1, 2684.2 1981.56 M2684.2 1981.56 C2051.76 1981.43, 1418.57 1980.34, 32 1981.56 M2684.2 1981.56 C1835.72 1974.34, 987.04 1974.68, 32 1981.56 M32 1981.56 C10.09 1983.22, -0.12 1972.58, 0 1949.56 M32 1981.56 C8.97 1980.32, -1.37 1970.8, 0 1949.56 M0 1949.56 C4.47 1235.24, 3.2 519.99, 0 32 M0 1949.56 C-0.06 1197.92, 0.37 446.5, 0 32 M0 32 C0.65 11.49, 9.75 -0.04, 32 0 M0 32 C-1.64 10.12, 9.31 -0.6, 32 0" stroke="#1e1e1e" stroke-width="1" fill="none"></path></g><g stroke-linecap="round" transform="translate(985.1210668889707 10) rotate(0 130 44.5)"><path d="M5.27 5.9 C5.27 5.9, 5.27 5.9, 5.27 5.9 M5.27 5.9 C5.27 5.9, 5.27 5.9, 5.27 5.9 M0.41 17.58 C4.91 13.77, 7.31 8.34, 13.53 2.49 M0.41 17.58 C3.19 14.42, 7.42 10.65, 13.53 2.49 M0.81 23.23 C6.43 17.81, 10.48 15.09, 19.83 1.34 M0.81 23.23 C7.44 16.64, 13.34 10.07, 19.83 1.34 M0.55 29.62 C10.02 17.7, 18.49 7.54, 24.82 1.7 M0.55 29.62 C7.13 22.26, 15.07 13.79, 24.82 1.7 M0.94 35.27 C8.4 25.29, 19.88 15.89, 29.81 2.06 M0.94 35.27 C11.39 21.95, 22.58 9.3, 29.81 2.06 M0.68 41.67 C15.92 25.91, 26.21 13.05, 35.45 1.67 M0.68 41.67 C9.64 30.37, 20.63 20.47, 35.45 1.67 M0.42 48.06 C10.48 37.63, 20.89 21.76, 40.44 2.03 M0.42 48.06 C12.81 33.03, 26.21 19.45, 40.44 2.03 M0.81 53.71 C17.69 34.77, 37.11 12.81, 46.08 1.63 M0.81 53.71 C17.04 36.03, 34.59 17.06, 46.08 1.63 M0.55 60.1 C19.14 39.62, 36.45 19.21, 51.07 1.99 M0.55 60.1 C18.15 37.91, 37.84 16.25, 51.07 1.99 M0.95 65.75 C19.43 45, 39.84 22.86, 56.05 2.35 M0.95 65.75 C22.48 40.65, 44.45 15.83, 56.05 2.35 M0.68 72.15 C24.87 48.36, 46.18 21.07, 61.7 1.96 M0.68 72.15 C23.8 47, 48.39 18.88, 61.7 1.96 M2.39 76.28 C21.42 58.56, 36.93 38.83, 66.68 2.32 M2.39 76.28 C16.31 61.67, 29.13 45.6, 66.68 2.32 M4.1 80.41 C30.08 49.67, 56.18 20.4, 72.33 1.92 M4.1 80.41 C23.01 57.44, 40.85 35.96, 72.33 1.92 M6.46 83.79 C27.29 59.42, 50.93 31.42, 77.31 2.28 M6.46 83.79 C28.41 59.33, 50.48 34.5, 77.31 2.28 M9.48 86.42 C29.22 65.11, 47.05 41.88, 82.96 1.89 M9.48 86.42 C35.48 56.33, 60.9 28.01, 82.96 1.89 M13.15 88.29 C36.97 62.37, 59.15 35.33, 87.94 2.25 M13.15 88.29 C42.46 54.58, 70.98 19.46, 87.94 2.25 M18.14 88.65 C41.97 58.8, 67.35 32.52, 93.59 1.85 M18.14 88.65 C46.46 55.7, 76.46 22.77, 93.59 1.85 M22.47 89.76 C45.47 64.5, 65.8 37.61, 98.57 2.21 M22.47 89.76 C36.48 71.79, 52.77 54.1, 98.57 2.21 M28.11 89.37 C48.42 62.81, 71.82 40.71, 104.22 1.82 M28.11 89.37 C52.29 62.65, 75.84 34.31, 104.22 1.82 M33.1 89.73 C56.62 63.8, 80.55 37.15, 109.2 2.18 M33.1 89.73 C56.82 61.96, 81.18 36.18, 109.2 2.18 M38.74 89.33 C60.12 61.31, 82.82 37.11, 114.85 1.78 M38.74 89.33 C66.98 56.19, 97.02 21.04, 114.85 1.78 M43.73 89.69 C64.04 65.39, 83.31 45.62, 119.83 2.14 M43.73 89.69 C67.51 63.09, 88.75 38.01, 119.83 2.14 M49.37 89.3 C72.24 61.8, 95.34 37.83, 125.48 1.75 M49.37 89.3 C80.9 54.58, 109.46 18.78, 125.48 1.75 M54.36 89.66 C70.12 69.44, 89.21 48.77, 130.46 2.11 M54.36 89.66 C68.47 71.97, 84.94 54.81, 130.46 2.11 M60 89.26 C85.73 61.38, 109.21 32.14, 136.11 1.72 M60 89.26 C78.95 66.53, 97.68 45.86, 136.11 1.72 M64.99 89.62 C92.61 56.76, 116.41 29.06, 141.09 2.08 M64.99 89.62 C85.8 65.82, 105.76 41.26, 141.09 2.08 M70.64 89.23 C96.16 60.32, 122.93 29.34, 146.74 1.68 M70.64 89.23 C101.66 54.49, 131.01 19.16, 146.74 1.68 M75.62 89.59 C101.15 56.78, 132.2 24.69, 151.72 2.04 M75.62 89.59 C104.79 54.26, 135.12 21.98, 151.72 2.04 M81.27 89.19 C98.96 69.94, 114.91 50.61, 157.37 1.65 M81.27 89.19 C96.35 70.91, 111 54.36, 157.37 1.65 M86.25 89.55 C103.97 65.49, 121.35 46.98, 162.36 2.01 M86.25 89.55 C104.69 66.22, 122.8 44.98, 162.36 2.01 M91.9 89.16 C118.14 58.94, 145.64 27.09, 167.34 2.37 M91.9 89.16 C119.11 59.26, 145.8 27.18, 167.34 2.37 M96.88 89.52 C126.6 55.54, 156.01 21, 172.99 1.97 M96.88 89.52 C126.31 54.48, 158.17 20.58, 172.99 1.97 M102.53 89.12 C126.63 63.32, 148.43 39.26, 177.97 2.33 M102.53 89.12 C125.88 63.57, 146.39 39.36, 177.97 2.33 M107.51 89.48 C134.8 56.17, 167.36 22.51, 183.62 1.94 M107.51 89.48 C122.53 70.68, 138.49 53.6, 183.62 1.94 M113.16 89.09 C131.39 66.09, 154.75 42.32, 188.6 2.3 M113.16 89.09 C139.02 57.2, 166.9 26.78, 188.6 2.3 M118.14 89.45 C141.37 63.2, 163.72 38.92, 194.25 1.9 M118.14 89.45 C136.75 67.87, 155.98 45.7, 194.25 1.9 M123.13 89.81 C142.77 67.56, 160.79 46.57, 199.23 2.26 M123.13 89.81 C140.19 69.84, 159.35 48.57, 199.23 2.26 M128.77 89.42 C153.68 58.61, 178.86 30.4, 204.88 1.87 M128.77 89.42 C156.64 58.92, 183.4 26.97, 204.88 1.87 M133.76 89.78 C158.98 57.99, 185.33 28.18, 209.86 2.23 M133.76 89.78 C159.5 61.23, 183.79 32.2, 209.86 2.23 M139.4 89.38 C158.04 69.97, 175.52 47.28, 215.51 1.83 M139.4 89.38 C168.78 56.03, 197.59 23.35, 215.51 1.83 M144.39 89.74 C169.88 57.44, 200.18 26.91, 220.49 2.19 M144.39 89.74 C175.09 54.87, 204.87 19.87, 220.49 2.19 M150.03 89.35 C169.31 66.44, 190.27 45.07, 226.14 1.8 M150.03 89.35 C180.41 54.33, 210.37 20.77, 226.14 1.8 M155.02 89.71 C172.93 71.51, 187.81 51.57, 231.12 2.16 M155.02 89.71 C174.94 64.69, 197.62 40.25, 231.12 2.16 M160.66 89.31 C185.9 59.81, 208.92 32.52, 238.08 0.26 M160.66 89.31 C184.84 62.31, 207.96 36.08, 238.08 0.26 M165.65 89.67 C196.62 55.31, 228 20.18, 243.06 0.62 M165.65 89.67 C195.86 56.38, 225.58 21.96, 243.06 0.62 M171.29 89.28 C200.67 56.45, 229.68 22.98, 247.4 1.73 M171.29 89.28 C188.45 70.15, 206.44 48.67, 247.4 1.73 M176.28 89.64 C197.05 67.35, 213.64 45.34, 251.07 3.6 M176.28 89.64 C193.4 69.61, 211.36 49.61, 251.07 3.6 M181.92 89.24 C198.66 70.24, 213.25 52.8, 254.75 5.47 M181.92 89.24 C207.55 60.44, 232.16 31.49, 254.75 5.47 M186.91 89.6 C206.24 65.88, 227.46 40.28, 256.45 9.6 M186.91 89.6 C205.61 68.59, 224.19 47.25, 256.45 9.6 M192.55 89.21 C215.59 58.5, 240.56 31.2, 258.16 13.74 M192.55 89.21 C208.45 71.26, 225.38 51.55, 258.16 13.74 M197.54 89.57 C220.09 63.02, 241.28 38.8, 259.87 17.87 M197.54 89.57 C215.33 70.19, 231.33 50.06, 259.87 17.87 M203.18 89.17 C220.91 68.04, 237.14 46.58, 260.26 23.51 M203.18 89.17 C223.47 66.35, 241.84 44.96, 260.26 23.51 M208.17 89.53 C227.17 68.02, 243.69 46.23, 260 29.91 M208.17 89.53 C226.96 66.73, 245.29 45.69, 260 29.91 M213.81 89.14 C225.62 77.62, 234.23 66.36, 260.39 35.55 M213.81 89.14 C227.19 74.69, 238.63 59.82, 260.39 35.55 M218.8 89.5 C234.11 69.99, 252.41 51.34, 260.13 41.95 M218.8 89.5 C233.14 72.44, 249.58 54.95, 260.13 41.95 M224.44 89.1 C236.84 75.13, 250.27 57.06, 260.53 47.6 M224.44 89.1 C235.41 75.59, 246.72 62.15, 260.53 47.6 M229.43 89.46 C234.96 82.8, 242.24 71.78, 260.27 53.99 M229.43 89.46 C236.21 81.96, 242.52 72.54, 260.27 53.99 M235.07 89.07 C242.62 84.31, 247.31 75.06, 260.66 59.64 M235.07 89.07 C243.89 77.74, 254.57 67.13, 260.66 59.64 M239.4 90.18 C246.69 80.3, 256.77 71.84, 260.4 66.03 M239.4 90.18 C244.01 82.83, 249.29 77.37, 260.4 66.03 M245.7 89.04 C251.42 83.93, 255.94 77.91, 262.76 69.41 M245.7 89.04 C251.61 80.77, 258.15 73.79, 262.76 69.41" stroke="#b2f2bb" stroke-width="0.5" fill="none"></path><path d="M22.25 0 M22.25 0 C88.31 0.57, 152.84 -0.42, 237.75 0 M22.25 0 C80.68 -0.74, 138.11 -0.77, 237.75 0 M237.75 0 C252.62 1.37, 261.47 6.92, 260 22.25 M237.75 0 C252.87 0.43, 261.27 7.03, 260 22.25 M260 22.25 C258.43 38.97, 260.76 54.81, 260 66.75 M260 22.25 C260.32 36.93, 260.5 50.91, 260 66.75 M260 66.75 C259.14 82.79, 251.29 90.83, 237.75 89 M260 66.75 C261.99 82.11, 254.04 88.75, 237.75 89 M237.75 89 C160.66 89.93, 83.2 88.74, 22.25 89 M237.75 89 C185.26 89.03, 132.53 88.71, 22.25 89 M22.25 89 C7.21 90.57, 1.26 82.03, 0 66.75 M22.25 89 C5.38 90.28, -2.06 82.89, 0 66.75 M0 66.75 C0.64 48.38, -1.55 31.74, 0 22.25 M0 66.75 C-0.54 57.94, 0.04 48.38, 0 22.25 M0 22.25 C0.48 6.48, 9.18 -1.37, 22.25 0 M0 22.25 C-0.08 6.15, 6.28 0.23, 22.25 0" stroke="#2f9e44" stroke-width="1" fill="none"></path></g><g transform="translate(1035.4611471502012 42) rotate(0 79.65991973876953 12.5)"><text x="79.65991973876953" y="0" font-family="Virgil, Segoe UI Emoji" font-size="20px" fill="#2f9e44" text-anchor="middle" style="white-space: pre;" direction="ltr" dominant-baseline="text-before-edge">Borrow/withdraw</text></g><g stroke-linecap="round" transform="translate(953.5166593777776 739.2656732164792) rotate(0 162 144.5)"><path d="M203.75 36.25 M203.75 36.25 C231.57 61.5, 256.36 86.04, 283.25 108.75 M203.75 36.25 C233.54 65.11, 265.46 93.5, 283.25 108.75 M283.25 108.75 C323 145.46, 324.81 144.76, 283.25 181.25 M283.25 108.75 C324.92 146.79, 322.7 144.06, 283.25 181.25 M283.25 181.25 C262.89 197.7, 245.36 214.42, 203.75 252.75 M283.25 181.25 C255.43 205.98, 228.21 231.88, 203.75 252.75 M203.75 252.75 C164.37 290.03, 163.44 289.95, 122.25 252.75 M203.75 252.75 C163.04 290.57, 164.7 288.43, 122.25 252.75 M122.25 252.75 C96.33 232.1, 69.79 209.84, 40.75 181.25 M122.25 252.75 C102.88 236.54, 82.64 220.03, 40.75 181.25 M40.75 181.25 C1.27 144.8, 1.62 143.2, 40.75 108.75 M40.75 181.25 C-0.99 146.39, -1.49 147.1, 40.75 108.75 M40.75 108.75 C71.86 81.38, 103.22 51.35, 122.25 36.25 M40.75 108.75 C64.71 86.72, 89.38 65.25, 122.25 36.25 M122.25 36.25 C163.46 1.56, 163.38 0.82, 203.75 36.25 M122.25 36.25 C162.76 1.81, 164.45 0.52, 203.75 36.25" stroke="#1e1e1e" stroke-width="1" fill="none"></path></g><g transform="translate(1045.5467420804143 846.5156732164792) rotate(0 69.96991729736328 37.5)"><text x="69.96991729736328" y="0" font-family="Virgil, Segoe UI Emoji" font-size="20px" fill="#1e1e1e" text-anchor="middle" style="white-space: pre;" direction="ltr" dominant-baseline="text-before-edge">Is the bulker </text><text x="69.96991729736328" y="25" font-family="Virgil, Segoe UI Emoji" font-size="20px" fill="#1e1e1e" text-anchor="middle" style="white-space: pre;" direction="ltr" dominant-baseline="text-before-edge">approved as </text><text x="69.96991729736328" y="50" font-family="Virgil, Segoe UI Emoji" font-size="20px" fill="#1e1e1e" text-anchor="middle" style="white-space: pre;" direction="ltr" dominant-baseline="text-before-edge">manager?</text></g><g stroke-linecap="round" transform="translate(964.0903954716541 1145.6661978286552) rotate(0 162 144.5)"><path d="M203.75 36.25 M203.75 36.25 C229.65 59.63, 253.12 81.58, 283.25 108.75 M203.75 36.25 C224.45 56.82, 248.14 76.22, 283.25 108.75 M283.25 108.75 C325.69 143.44, 322.27 146.09, 283.25 181.25 M283.25 108.75 C325.2 145.97, 322.41 147.23, 283.25 181.25 M283.25 181.25 C256.11 208.61, 227 233.07, 203.75 252.75 M283.25 181.25 C265.19 195.9, 249.34 212.56, 203.75 252.75 M203.75 252.75 C163.33 287.95, 164.77 290.59, 122.25 252.75 M203.75 252.75 C161.25 291.07, 164.26 290.2, 122.25 252.75 M122.25 252.75 C97.34 229.07, 70.4 206.71, 40.75 181.25 M122.25 252.75 C99.71 233.51, 79.22 214.92, 40.75 181.25 M40.75 181.25 C1.35 145.73, 0.08 144.86, 40.75 108.75 M40.75 181.25 C0.37 143.01, 1.04 143.35, 40.75 108.75 M40.75 108.75 C61.56 89.53, 81.53 72.31, 122.25 36.25 M40.75 108.75 C60.7 89.43, 81.99 72.17, 122.25 36.25 M122.25 36.25 C164.13 1.61, 162.46 0.66, 203.75 36.25 M122.25 36.25 C160.84 0.65, 160.97 1.1, 203.75 36.25" stroke="#1e1e1e" stroke-width="1" fill="none"></path></g><g transform="translate(1051.5004830571033 1252.9161978286552) rotate(0 74.58991241455078 37.5)"><text x="74.58991241455078" y="0" font-family="Virgil, Segoe UI Emoji" font-size="20px" fill="#1e1e1e" text-anchor="middle" style="white-space: pre;" direction="ltr" dominant-baseline="text-before-edge">Do you want </text><text x="74.58991241455078" y="25" font-family="Virgil, Segoe UI Emoji" font-size="20px" fill="#1e1e1e" text-anchor="middle" style="white-space: pre;" direction="ltr" dominant-baseline="text-before-edge">to unwrap the </text><text x="74.58991241455078" y="50" font-family="Virgil, Segoe UI Emoji" font-size="20px" fill="#1e1e1e" text-anchor="middle" style="white-space: pre;" direction="ltr" dominant-baseline="text-before-edge">eth / steth?</text></g><g stroke-linecap="round" transform="translate(963.9496291502755 1518.6505758925155) rotate(0 162 144.5)"><path d="M203.75 36.25 M203.75 36.25 C232.83 65.47, 264.27 92.71, 283.25 108.75 M203.75 36.25 C232.34 63.17, 259.72 88.25, 283.25 108.75 M283.25 108.75 C324.08 143.96, 323.78 145.74, 283.25 181.25 M283.25 108.75 C326.17 145.77, 323.87 147.04, 283.25 181.25 M283.25 181.25 C257.62 202.27, 231.31 226.51, 203.75 252.75 M283.25 181.25 C260.13 202.49, 236.98 223.01, 203.75 252.75 M203.75 252.75 C162.38 290.24, 164.19 289.43, 122.25 252.75 M203.75 252.75 C162.55 288.61, 160.76 290.53, 122.25 252.75 M122.25 252.75 C100.17 233.12, 78.15 213.73, 40.75 181.25 M122.25 252.75 C94.6 227.47, 65.45 202.7, 40.75 181.25 M40.75 181.25 C0.31 146.84, -1.79 144.58, 40.75 108.75 M40.75 181.25 C-1.47 144.86, 1.5 145.46, 40.75 108.75 M40.75 108.75 C63.9 90.35, 86.77 67.5, 122.25 36.25 M40.75 108.75 C70.44 82.74, 101.25 55.97, 122.25 36.25 M122.25 36.25 C163.62 -0.69, 162.33 0.79, 203.75 36.25 M122.25 36.25 C165.13 -1.61, 165.08 1.77, 203.75 36.25" stroke="#1e1e1e" stroke-width="1" fill="none"></path></g><g transform="translate(1058.6197036131662 1625.9005758925155) rotate(0 67.32992553710938 37.5)"><text x="67.32992553710938" y="0" font-family="Virgil, Segoe UI Emoji" font-size="20px" fill="#1e1e1e" text-anchor="middle" style="white-space: pre;" direction="ltr" dominant-baseline="text-before-edge">Do you want </text><text x="67.32992553710938" y="25" font-family="Virgil, Segoe UI Emoji" font-size="20px" fill="#1e1e1e" text-anchor="middle" style="white-space: pre;" direction="ltr" dominant-baseline="text-before-edge">to resupply </text><text x="67.32992553710938" y="50" font-family="Virgil, Segoe UI Emoji" font-size="20px" fill="#1e1e1e" text-anchor="middle" style="white-space: pre;" direction="ltr" dominant-baseline="text-before-edge">this eth?</text></g><g stroke-linecap="round" transform="translate(980.4016603519121 247.9212699051859) rotate(0 162 144.5)"><path d="M203.75 36.25 M203.75 36.25 C225.15 56.99, 250.99 80.82, 283.25 108.75 M203.75 36.25 C226.39 58.51, 249.56 78.58, 283.25 108.75 M283.25 108.75 C325.5 146.83, 325.97 145.38, 283.25 181.25 M283.25 108.75 C324.72 143.19, 321.76 146.11, 283.25 181.25 M283.25 181.25 C262.87 197, 243.3 216.86, 203.75 252.75 M283.25 181.25 C253.81 208.23, 223.43 233.96, 203.75 252.75 M203.75 252.75 C164.38 289.87, 164.37 290.24, 122.25 252.75 M203.75 252.75 C161.23 289.17, 162.72 291.02, 122.25 252.75 M122.25 252.75 C99.01 231.57, 70.83 211.59, 40.75 181.25 M122.25 252.75 C101.66 234.42, 79.9 215.9, 40.75 181.25 M40.75 181.25 C-1.02 143.56, -1.18 145.67, 40.75 108.75 M40.75 181.25 C1.93 147.19, 1.19 144.69, 40.75 108.75 M40.75 108.75 C70.64 81.14, 103.8 54.48, 122.25 36.25 M40.75 108.75 C57.59 92.79, 74.31 78.6, 122.25 36.25 M122.25 36.25 C161.41 -1.71, 163.59 0.06, 203.75 36.25 M122.25 36.25 C164.53 -1.74, 163.44 -1.77, 203.75 36.25" stroke="#1e1e1e" stroke-width="1" fill="none"></path></g><g transform="translate(1075.8417390872637 355.1712699051859) rotate(0 66.55992126464844 37.5)"><text x="66.55992126464844" y="0" font-family="Virgil, Segoe UI Emoji" font-size="20px" fill="#1e1e1e" text-anchor="middle" style="white-space: pre;" direction="ltr" dominant-baseline="text-before-edge">Do you have </text><text x="66.55992126464844" y="25" font-family="Virgil, Segoe UI Emoji" font-size="20px" fill="#1e1e1e" text-anchor="middle" style="white-space: pre;" direction="ltr" dominant-baseline="text-before-edge">enough </text><text x="66.55992126464844" y="50" font-family="Virgil, Segoe UI Emoji" font-size="20px" fill="#1e1e1e" text-anchor="middle" style="white-space: pre;" direction="ltr" dominant-baseline="text-before-edge">collateral?</text></g><g stroke-linecap="round" transform="translate(975.209428723454 2011.8204620725946) rotate(0 170 55.5)"><path d="M27.75 0 M27.75 0 C135.81 -1.07, 246.11 -1.16, 312.25 0 M27.75 0 C87.99 0.99, 147.73 0.45, 312.25 0 M312.25 0 C330.7 1.81, 341.93 8.18, 340 27.75 M312.25 0 C329.31 -2.28, 341.98 9.98, 340 27.75 M340 27.75 C341.07 47.78, 340.08 64.59, 340 83.25 M340 27.75 C339.75 42.98, 340.28 57.27, 340 83.25 M340 83.25 C339.25 102.7, 330.02 109.8, 312.25 111 M340 83.25 C341.46 101.4, 331.03 109.63, 312.25 111 M312.25 111 C226.1 112.73, 137.78 111.03, 27.75 111 M312.25 111 C255.48 112.09, 197.75 112.6, 27.75 111 M27.75 111 C9.33 112.09, -1.24 101.3, 0 83.25 M27.75 111 C11.1 110.41, 1.66 103.6, 0 83.25 M0 83.25 C1.6 69.93, -0.51 58.06, 0 27.75 M0 83.25 C0.24 62.93, -0.75 41.47, 0 27.75 M0 27.75 C0.07 9.28, 9.78 -0.75, 27.75 0 M0 27.75 C2.08 7.42, 9.97 -0.49, 27.75 0" stroke="#1e1e1e" stroke-width="1" fill="none"></path></g><g transform="translate(997.7296008425947 2042.3204620725946) rotate(0 147.47982788085938 25)"><text x="147.47982788085938" y="0" font-family="Virgil, Segoe UI Emoji" font-size="20px" fill="#1e1e1e" text-anchor="middle" style="white-space: pre;" direction="ltr" dominant-baseline="text-before-edge">Add borrow/withdraw to user </text><text x="147.47982788085938" y="25" font-family="Virgil, Segoe UI Emoji" font-size="20px" fill="#1e1e1e" text-anchor="middle" style="white-space: pre;" direction="ltr" dominant-baseline="text-before-edge">operation</text></g><g stroke-linecap="round" transform="translate(975.399040127133 2201.6775863384714) rotate(0 170 55.5)"><path d="M6.73 7.18 C6.73 7.18, 6.73 7.18, 6.73 7.18 M6.73 7.18 C6.73 7.18, 6.73 7.18, 6.73 7.18 M6.47 13.57 C7.93 11.57, 12.21 8.27, 16.31 2.25 M6.47 13.57 C8.61 9.96, 11.21 7.64, 16.31 2.25 M2.93 23.74 C11.29 15.42, 19.65 4.8, 22.61 1.1 M2.93 23.74 C9.25 16.96, 15.85 8.83, 22.61 1.1 M3.32 29.39 C11.37 18.62, 21.1 7.56, 28.25 0.71 M3.32 29.39 C9.58 22.19, 16.38 15.16, 28.25 0.71 M3.06 35.79 C12.05 27.23, 19.12 16.58, 33.9 0.31 M3.06 35.79 C15.12 20.86, 26.06 7.08, 33.9 0.31 M2.8 42.18 C16.16 27.92, 25.73 14.9, 38.88 0.67 M2.8 42.18 C10.56 32.59, 18.83 24.67, 38.88 0.67 M3.19 47.83 C15.68 31.29, 29.74 17.55, 44.53 0.28 M3.19 47.83 C15.4 33.38, 28.59 16.9, 44.53 0.28 M2.93 54.22 C19.67 34.12, 37.73 13.6, 49.51 0.64 M2.93 54.22 C12.46 43.51, 22.26 31.96, 49.51 0.64 M3.33 59.87 C21.2 35.8, 42.91 15.29, 55.16 0.25 M3.33 59.87 C19.85 40.17, 37.83 20.48, 55.16 0.25 M3.07 66.27 C23.94 42.28, 43.08 21.03, 60.14 0.61 M3.07 66.27 C17.45 49.21, 32.83 30.89, 60.14 0.61 M2.8 72.66 C16.3 55.52, 34.66 37.45, 65.79 0.21 M2.8 72.66 C26.35 45.04, 49.68 17.87, 65.79 0.21 M3.2 78.31 C26.54 52.5, 50.39 25.17, 70.77 0.57 M3.2 78.31 C23.66 53.8, 44.49 28.77, 70.77 0.57 M2.94 84.7 C22.93 62.78, 42.3 37.93, 75.76 0.93 M2.94 84.7 C25.58 55.9, 49.54 27.82, 75.76 0.93 M2.68 91.1 C24.18 64.49, 47.29 39.19, 81.4 0.54 M2.68 91.1 C20.59 68.9, 39.18 48.09, 81.4 0.54 M3.73 95.99 C26.82 71.59, 47.35 43.63, 86.39 0.9 M3.73 95.99 C20.02 77.12, 38.49 56.58, 86.39 0.9 M4.78 100.88 C29.57 67.75, 58.08 39.22, 92.03 0.5 M4.78 100.88 C40.53 62.1, 74.02 21.96, 92.03 0.5 M7.14 104.26 C29.17 80.69, 52.91 55.53, 97.02 0.86 M7.14 104.26 C37.61 69.61, 67.38 36.24, 97.02 0.86 M10.81 106.13 C41.17 70.95, 70.92 32.2, 102.66 0.47 M10.81 106.13 C43.69 68.97, 75.47 31.3, 102.66 0.47 M13.83 108.75 C33.6 82.65, 58.04 57.12, 107.65 0.83 M13.83 108.75 C47.84 69.85, 84.32 29.11, 107.65 0.83 M17.51 110.62 C52 70.15, 88.52 28.22, 113.29 0.43 M17.51 110.62 C49.46 76.14, 79.17 40.1, 113.29 0.43 M21.84 111.74 C48.23 80.12, 78.85 46.27, 118.28 0.79 M21.84 111.74 C52.99 76.58, 83.16 38.81, 118.28 0.79 M27.48 111.34 C63.9 67.88, 104.15 26.1, 123.92 0.4 M27.48 111.34 C58.99 75.91, 90.26 38.59, 123.92 0.4 M33.13 110.95 C64.14 75.42, 99.27 37.02, 128.91 0.76 M33.13 110.95 C62.45 76.82, 90.06 44.3, 128.91 0.76 M38.11 111.31 C59.58 85.41, 78.77 62.87, 134.55 0.36 M38.11 111.31 C60.19 86.9, 82.7 61.5, 134.55 0.36 M43.76 110.91 C64.96 88.89, 87.93 62.14, 139.54 0.72 M43.76 110.91 C75.43 74.8, 109.37 36.02, 139.54 0.72 M48.74 111.27 C76.47 76.55, 105.44 45.81, 145.18 0.33 M48.74 111.27 C76.19 77.91, 107.18 44.13, 145.18 0.33 M54.39 110.88 C85.5 75.69, 111.45 43.12, 150.17 0.69 M54.39 110.88 C76.02 84.47, 99.67 58.93, 150.17 0.69 M59.37 111.24 C88.52 82.19, 116.46 49.86, 155.81 0.29 M59.37 111.24 C87.27 81.62, 113.18 50.37, 155.81 0.29 M65.02 110.84 C94.27 74.36, 123.31 41.37, 160.8 0.66 M65.02 110.84 C90.72 80.69, 115.78 51.5, 160.8 0.66 M70 111.2 C95.74 81.87, 120.85 51.82, 166.44 0.26 M70 111.2 C96.88 80.26, 125.63 47.17, 166.44 0.26 M75.65 110.81 C100.41 82.19, 122.5 55.56, 171.43 0.62 M75.65 110.81 C104.51 79.6, 130.79 46.41, 171.43 0.62 M80.63 111.17 C113.6 75.54, 147.21 36.49, 177.07 0.23 M80.63 111.17 C109.74 78.11, 139.15 43.57, 177.07 0.23 M86.28 110.77 C111.01 83.37, 135.61 51.84, 182.06 0.59 M86.28 110.77 C110.92 82.3, 133.6 54.23, 182.06 0.59 M91.26 111.13 C116.23 82.72, 140.36 56.18, 187.7 0.19 M91.26 111.13 C124.04 73.32, 155.56 36.35, 187.7 0.19 M96.91 110.74 C116.77 88.88, 136.21 67.77, 192.69 0.55 M96.91 110.74 C119.23 84.37, 142.15 58.88, 192.69 0.55 M101.89 111.1 C130.9 77.03, 163.98 38.53, 197.68 0.91 M101.89 111.1 C138.97 68.15, 177.12 26.63, 197.68 0.91 M107.54 110.7 C131.67 80.62, 157.98 50.41, 203.32 0.52 M107.54 110.7 C132.73 80.83, 158.47 50.63, 203.32 0.52 M112.52 111.06 C147.09 71.04, 182.87 31.58, 208.31 0.88 M112.52 111.06 C145.58 74.15, 175.18 37.92, 208.31 0.88 M118.17 110.67 C153.31 70.94, 189.58 29.88, 213.95 0.48 M118.17 110.67 C146.87 77.2, 174.93 45.18, 213.95 0.48 M123.15 111.03 C152.07 76.34, 186.4 40.42, 218.94 0.84 M123.15 111.03 C146.85 83.41, 169.21 56.91, 218.94 0.84 M128.14 111.39 C159.39 77.99, 186.5 44.48, 224.58 0.45 M128.14 111.39 C163.66 68.54, 199.93 28.38, 224.58 0.45 M133.78 111 C157.11 85.34, 180.26 58.35, 229.57 0.81 M133.78 111 C155.45 85.63, 178.29 59.55, 229.57 0.81 M138.77 111.36 C162.45 80.95, 191.24 52.82, 235.21 0.41 M138.77 111.36 C167.76 77.44, 198.69 43.42, 235.21 0.41 M144.41 110.96 C179.7 69.1, 211.55 30.9, 240.2 0.77 M144.41 110.96 C167.18 84.56, 191.13 57.8, 240.2 0.77 M149.4 111.32 C178.34 77.21, 208.85 45.5, 245.84 0.38 M149.4 111.32 C172.74 86.73, 194.62 59.7, 245.84 0.38 M155.04 110.93 C183.3 75.6, 216.01 38.19, 250.83 0.74 M155.04 110.93 C179.11 83.77, 203.42 57.31, 250.83 0.74 M160.03 111.29 C178.75 88.78, 199.17 62.85, 256.47 0.34 M160.03 111.29 C178.58 87.72, 199.39 66.25, 256.47 0.34 M165.67 110.89 C185.13 87.49, 205.52 62.55, 261.46 0.7 M165.67 110.89 C187.75 86.78, 208.03 61.6, 261.46 0.7 M170.66 111.25 C202.16 78.11, 233.19 41.77, 267.1 0.31 M170.66 111.25 C189.84 88.54, 209.33 65.91, 267.1 0.31 M176.3 110.86 C209.02 72.49, 241.84 36.92, 272.09 0.67 M176.3 110.86 C197.92 88.97, 217.77 63.95, 272.09 0.67 M181.29 111.22 C203.49 85, 226.87 57.7, 277.73 0.28 M181.29 111.22 C214.1 74.11, 247.14 37.12, 277.73 0.28 M186.93 110.82 C207.01 86.86, 230.4 62.51, 282.72 0.64 M186.93 110.82 C211.7 81.68, 236.43 53.49, 282.72 0.64 M191.92 111.18 C226.38 71.38, 264.56 30.16, 288.36 0.24 M191.92 111.18 C218.5 82.95, 242.56 53.22, 288.36 0.24 M197.56 110.79 C216.03 85.95, 238.24 63.09, 293.35 0.6 M197.56 110.79 C221.88 84.07, 245.05 57.12, 293.35 0.6 M202.55 111.15 C234.46 72.61, 271.2 33.35, 298.99 0.21 M202.55 111.15 C235.06 73.57, 267.45 37.82, 298.99 0.21 M208.19 110.75 C233.34 81.57, 258.53 54.53, 303.98 0.57 M208.19 110.75 C233.89 79.31, 260.16 49.62, 303.98 0.57 M213.18 111.11 C235.16 84.85, 256.41 60.67, 308.97 0.93 M213.18 111.11 C236.38 84.16, 260.28 55.88, 308.97 0.93 M218.82 110.72 C253.6 70.81, 289.67 29.85, 313.95 1.29 M218.82 110.72 C246.07 80.51, 273.54 49.83, 313.95 1.29 M223.81 111.08 C251 78.6, 277.94 46.17, 318.28 2.4 M223.81 111.08 C245.01 83.42, 267.59 59.11, 318.28 2.4 M229.45 110.69 C264.04 71.46, 295.83 36.09, 323.27 2.76 M229.45 110.69 C251.94 86.68, 274.13 60.12, 323.27 2.76 M234.44 111.05 C256.22 87.03, 274.65 66.97, 327.6 3.88 M234.44 111.05 C258.38 82.76, 283.65 54.98, 327.6 3.88 M240.08 110.65 C264.33 85.8, 284.96 58.3, 330.62 6.5 M240.08 110.65 C269.46 75.68, 299.19 40.65, 330.62 6.5 M245.07 111.01 C278.03 76.43, 307.32 42.19, 334.3 8.37 M245.07 111.01 C277.23 72.2, 311.86 34.17, 334.3 8.37 M250.06 111.37 C275.31 80.64, 300.62 52.47, 336.66 11.75 M250.06 111.37 C282.54 74.2, 316.67 36.83, 336.66 11.75 M255.7 110.98 C287.5 75.62, 319.87 39.69, 338.36 15.88 M255.7 110.98 C273.17 90.28, 290.57 69.9, 338.36 15.88 M260.69 111.34 C290.27 75.93, 323.97 40.15, 340.07 20.02 M260.69 111.34 C280.07 89.72, 298.59 67.18, 340.07 20.02 M266.33 110.94 C292.63 80.01, 319.61 50.59, 342.43 23.4 M266.33 110.94 C288.17 85.81, 311.19 58.69, 342.43 23.4 M271.32 111.3 C286.79 93.99, 301.56 77.5, 342.17 29.79 M271.32 111.3 C297.69 81.96, 324.51 49.83, 342.17 29.79 M276.96 110.91 C303.11 82.61, 327.65 54.54, 342.57 35.44 M276.96 110.91 C296.27 87.71, 317.55 64.36, 342.57 35.44 M281.95 111.27 C299.1 90.37, 319.56 69.76, 342.31 41.83 M281.95 111.27 C299.96 90.59, 318.58 68.89, 342.31 41.83 M287.59 110.87 C303.59 92.58, 320.41 73.65, 342.7 47.48 M287.59 110.87 C300.91 95.9, 314.39 79.34, 342.7 47.48 M292.58 111.23 C312.64 90.53, 330.23 66.13, 342.44 53.88 M292.58 111.23 C309.48 91.28, 327.9 70.2, 342.44 53.88 M298.22 110.84 C312.88 95.48, 329.37 74.73, 342.83 59.52 M298.22 110.84 C316.44 90.84, 332.41 69.37, 342.83 59.52 M303.21 111.2 C312.76 99.63, 322.57 88.99, 342.57 65.92 M303.21 111.2 C314.93 98.29, 325.7 85.68, 342.57 65.92 M308.85 110.8 C321.7 98.18, 334.63 83.74, 342.31 72.31 M308.85 110.8 C317.3 101.77, 324.02 91.99, 342.31 72.31 M313.18 111.92 C319.76 102.02, 326.54 93.73, 342.71 77.96 M313.18 111.92 C321.2 102.99, 329.02 93.41, 342.71 77.96 M319.48 110.77 C325.53 104.16, 330.1 101.78, 341.79 85.11 M319.48 110.77 C327.73 101.04, 334.31 93.38, 341.79 85.11 M325.12 110.37 C326.65 104.83, 330.75 100.81, 340.87 92.26 M325.12 110.37 C330.64 104.65, 336.56 97.08, 340.87 92.26" stroke="#a5d8ff" stroke-width="0.5" fill="none"></path><path d="M27.75 0 M27.75 0 C86.53 -0.93, 148.56 0.72, 312.25 0 M27.75 0 C92.17 -2.22, 155.09 -2.06, 312.25 0 M312.25 0 C332.24 1.53, 338.03 10.97, 340 27.75 M312.25 0 C330.72 0.82, 340.03 11.25, 340 27.75 M340 27.75 C340.39 45.4, 338.47 61.78, 340 83.25 M340 27.75 C339.84 48.12, 339.29 68.72, 340 83.25 M340 83.25 C339.05 102.58, 332.45 112.56, 312.25 111 M340 83.25 C338.3 102.01, 332.53 111.05, 312.25 111 M312.25 111 C246.87 111.03, 180.64 109.94, 27.75 111 M312.25 111 C209.44 111.76, 105.48 112.44, 27.75 111 M27.75 111 C8.27 110.79, 1.77 99.88, 0 83.25 M27.75 111 C7.41 112.18, -1.87 101.27, 0 83.25 M0 83.25 C1.71 62.95, -1.88 44.52, 0 27.75 M0 83.25 C-0.82 63.17, 0.53 42.3, 0 27.75 M0 27.75 C-0.69 7.37, 10.54 -1.21, 27.75 0 M0 27.75 C-0.94 10.13, 11.53 -1.26, 27.75 0" stroke="#1971c2" stroke-width="1" fill="none"></path></g><g transform="translate(1128.299056911801 2244.6775863384714) rotate(0 17.09998321533203 12.5)"><text x="17.09998321533203" y="0" font-family="Virgil, Segoe UI Emoji" font-size="20px" fill="#1971c2" text-anchor="middle" style="white-space: pre;" direction="ltr" dominant-baseline="text-before-edge">End</text></g><g stroke-linecap="round" transform="translate(1529.816310550622 315.91803765552413) rotate(0 120.5 82)"><path d="M7.86 8.16 C7.86 8.16, 7.86 8.16, 7.86 8.16 M7.86 8.16 C7.86 8.16, 7.86 8.16, 7.86 8.16 M3.66 19.09 C8.33 13.88, 10.02 11.92, 18.1 2.48 M3.66 19.09 C7.97 12.42, 13.59 7.67, 18.1 2.48 M2.75 26.24 C8.49 20.78, 13.31 14.77, 24.4 1.33 M2.75 26.24 C10.59 16.94, 17.03 8.43, 24.4 1.33 M2.48 32.64 C11.52 19.48, 25.75 6.56, 30.7 0.18 M2.48 32.64 C11.92 20.85, 23.92 8.46, 30.7 0.18 M2.88 38.28 C10.62 28.31, 14.55 22.22, 34.37 2.05 M2.88 38.28 C14.54 25.95, 25.97 11.08, 34.37 2.05 M2.62 44.68 C16.61 30.02, 25.89 16.62, 39.36 2.41 M2.62 44.68 C17.94 28.53, 31.11 10.98, 39.36 2.41 M2.36 51.07 C18.64 33, 35.97 13.19, 45 2.02 M2.36 51.07 C18.36 32.87, 34.64 13.91, 45 2.02 M2.75 56.72 C18.09 40.38, 30.47 25.95, 49.99 2.38 M2.75 56.72 C14.54 43.59, 25.45 30.59, 49.99 2.38 M2.49 63.11 C24.07 37.95, 42.86 14.31, 55.63 1.98 M2.49 63.11 C12.94 49.37, 24.48 37.9, 55.63 1.98 M2.88 68.76 C21.81 47.71, 37.49 26.59, 60.62 2.34 M2.88 68.76 C15.73 53.61, 28.05 40.62, 60.62 2.34 M2.62 75.16 C19.69 56.83, 35.4 40.07, 66.26 1.95 M2.62 75.16 C26.86 47.44, 51.46 19.54, 66.26 1.95 M2.36 81.55 C22.88 57.62, 39.69 34.8, 71.25 2.31 M2.36 81.55 C26.96 51.83, 52.64 22.83, 71.25 2.31 M2.76 87.2 C22.96 62.45, 44.16 38.76, 76.89 1.91 M2.76 87.2 C31.49 53.67, 60.7 20.01, 76.89 1.91 M2.49 93.59 C28.05 63.75, 55.65 34.87, 81.88 2.27 M2.49 93.59 C20.8 74.04, 37.01 52.96, 81.88 2.27 M2.89 99.24 C29.89 66.93, 57.37 34.98, 87.52 1.88 M2.89 99.24 C22.21 76.85, 43.16 53.52, 87.52 1.88 M2.63 105.64 C34.36 66.44, 69.42 28.24, 92.51 2.24 M2.63 105.64 C33.81 68.95, 64.43 35.22, 92.51 2.24 M2.37 112.03 C34.17 71.63, 68.21 34.46, 98.15 1.85 M2.37 112.03 C27.03 83.63, 51.05 56.71, 98.15 1.85 M2.76 117.68 C39.18 75.71, 78.42 33.1, 103.14 2.21 M2.76 117.68 C31.64 85.94, 59.52 53.54, 103.14 2.21 M2.5 124.07 C28.16 96.22, 56.11 63.22, 108.78 1.81 M2.5 124.07 C36.99 84.53, 70.33 46.8, 108.78 1.81 M2.89 129.72 C30.92 95.69, 61.55 59.28, 113.77 2.17 M2.89 129.72 C32.31 96.86, 59.94 65.82, 113.77 2.17 M2.63 136.11 C29.63 105.85, 53.49 72.18, 119.41 1.78 M2.63 136.11 C25.72 109.48, 48.8 83.34, 119.41 1.78 M3.03 141.76 C38.88 99.36, 78.44 53.69, 124.4 2.14 M3.03 141.76 C38.25 102.38, 72.42 64.01, 124.4 2.14 M4.73 145.89 C32.41 112.95, 59.59 80.81, 130.04 1.74 M4.73 145.89 C35.48 111.4, 65.63 77.32, 130.04 1.74 M5.13 151.53 C41.1 109.53, 77.3 67.63, 135.03 2.1 M5.13 151.53 C35.92 116.96, 64.82 82.01, 135.03 2.1 M7.49 154.91 C43.94 114.39, 83.41 70.62, 140.67 1.71 M7.49 154.91 C40.59 115.64, 76.03 75.81, 140.67 1.71 M10.51 157.54 C41.01 120.75, 70.32 85.94, 145.66 2.07 M10.51 157.54 C61.51 99.3, 111.84 40.82, 145.66 2.07 M13.53 160.16 C67.01 98.06, 117.49 40.13, 150.65 2.43 M13.53 160.16 C48.36 119.43, 83.32 79.29, 150.65 2.43 M17.2 162.03 C47.93 128.43, 74.77 97.78, 156.29 2.03 M17.2 162.03 C51.54 124.91, 84.32 87.34, 156.29 2.03 M21.53 163.15 C55.23 126.87, 86.36 94.33, 161.28 2.39 M21.53 163.15 C65.85 109.97, 110.27 58.94, 161.28 2.39 M25.87 164.26 C71.79 113.13, 113.56 61.46, 166.92 2 M25.87 164.26 C76.49 107.2, 126.37 47.15, 166.92 2 M30.85 164.62 C62.12 127.7, 94.16 93.32, 171.91 2.36 M30.85 164.62 C70.43 116.56, 111 69.36, 171.91 2.36 M34.53 166.49 C70.45 126.1, 106.15 86.37, 177.55 1.96 M34.53 166.49 C79.64 116.25, 124.51 64.96, 177.55 1.96 M40.17 166.1 C86.54 114.61, 130.77 60.79, 182.54 2.32 M40.17 166.1 C85.28 113.5, 130.67 61.39, 182.54 2.32 M45.16 166.46 C92.44 110.35, 140.71 58.04, 188.18 1.93 M45.16 166.46 C85.06 120.43, 126.32 73.03, 188.18 1.93 M50.8 166.06 C105.29 103.01, 160.19 37.98, 193.17 2.29 M50.8 166.06 C92.21 116.91, 135.04 68.14, 193.17 2.29 M55.79 166.42 C101.57 112.88, 148.4 61.04, 198.81 1.9 M55.79 166.42 C102.39 113.17, 150.08 59.14, 198.81 1.9 M61.43 166.03 C116.47 101.01, 173.43 36.43, 203.8 2.26 M61.43 166.03 C96.96 125.67, 131.8 84.61, 203.8 2.26 M66.42 166.39 C122.25 101.37, 179.18 36.8, 210.09 1.11 M66.42 166.39 C104.52 123.12, 140.94 79.56, 210.09 1.11 M72.06 165.99 C109.44 122.55, 150.24 77.72, 215.08 1.47 M72.06 165.99 C115.64 118.62, 157.98 69.32, 215.08 1.47 M77.05 166.35 C123.47 112.93, 167.07 61.56, 219.41 2.58 M77.05 166.35 C132.75 103.27, 189.22 37.7, 219.41 2.58 M82.69 165.96 C116.56 131.49, 145.85 94.18, 223.09 4.45 M82.69 165.96 C131.21 111.61, 178.14 57.93, 223.09 4.45 M87.68 166.32 C134.87 110.7, 180.52 58.05, 227.42 5.57 M87.68 166.32 C119.51 128.98, 152.55 90.92, 227.42 5.57 M92.67 166.68 C124.13 133.43, 151.12 101.24, 231.75 6.68 M92.67 166.68 C140.76 111.41, 191.04 53.79, 231.75 6.68 M98.31 166.28 C132.71 122.1, 172.09 80.47, 234.11 10.06 M98.31 166.28 C141.85 117.77, 183.07 68.64, 234.11 10.06 M103.3 166.64 C145.54 119.83, 185.98 71.64, 237.13 12.68 M103.3 166.64 C141.03 124.23, 179.73 80.5, 237.13 12.68 M108.94 166.25 C161.11 110.99, 210.79 51.14, 238.84 16.82 M108.94 166.25 C159.52 107.04, 211.9 47.55, 238.84 16.82 M113.93 166.61 C154.56 119.28, 192.9 76.22, 241.2 20.2 M113.93 166.61 C161.83 113.71, 207.44 59.45, 241.2 20.2 M119.57 166.21 C163.08 117.88, 206.89 63.96, 242.25 25.08 M119.57 166.21 C156.33 126.77, 190.6 84.58, 242.25 25.08 M124.56 166.57 C164.51 121.59, 202.13 77.56, 241.33 32.24 M124.56 166.57 C148.41 138.18, 174.58 109.95, 241.33 32.24 M130.2 166.18 C161.4 128.21, 194.39 90.98, 241.07 38.63 M130.2 166.18 C153.85 140.64, 175.88 113.86, 241.07 38.63 M135.19 166.54 C157.7 143.98, 179.26 115.4, 241.47 44.28 M135.19 166.54 C168.71 126.02, 202.95 87.32, 241.47 44.28 M140.83 166.15 C168.53 129.52, 200.56 98.05, 241.21 50.68 M140.83 166.15 C160.81 142.84, 181.46 117.91, 241.21 50.68 M145.82 166.51 C175.99 133, 203.11 100.98, 241.6 56.32 M145.82 166.51 C177.74 129.27, 208.15 93.67, 241.6 56.32 M151.46 166.11 C182.56 130.16, 212.51 93.19, 241.34 62.72 M151.46 166.11 C185.59 128.3, 217.78 91.23, 241.34 62.72 M156.45 166.47 C183.27 136.39, 207.37 108.86, 241.08 69.11 M156.45 166.47 C174.3 146.69, 191.48 125.45, 241.08 69.11 M162.09 166.08 C194.34 128.66, 224.54 95.53, 241.47 74.76 M162.09 166.08 C193.07 130.71, 224.26 95.41, 241.47 74.76 M167.08 166.44 C197.61 134.44, 226.82 99.31, 241.21 81.15 M167.08 166.44 C186.75 144.72, 205.05 121.65, 241.21 81.15 M172.72 166.04 C189.22 149.5, 204.52 128.67, 241.61 86.8 M172.72 166.04 C187.56 147.94, 202.78 131.1, 241.61 86.8 M177.71 166.4 C197.34 144.73, 218.87 121.49, 241.34 93.2 M177.71 166.4 C197.13 143.63, 216.49 121.68, 241.34 93.2 M183.35 166.01 C197.18 150.39, 211.96 131.74, 241.08 99.59 M183.35 166.01 C195.33 153.25, 207.68 139.56, 241.08 99.59 M188.34 166.37 C202.79 147.73, 220.35 128.05, 241.48 105.24 M188.34 166.37 C205.01 150.04, 220.34 131.82, 241.48 105.24 M193.98 165.97 C210.32 148.8, 225.92 132.8, 241.22 111.63 M193.98 165.97 C210.96 146.37, 227.86 127.33, 241.22 111.63 M198.97 166.33 C216.7 148.56, 230.27 131.91, 241.61 117.28 M198.97 166.33 C212.25 151.3, 225.85 135.48, 241.61 117.28 M203.95 166.69 C214.99 156.82, 225.42 143.76, 241.35 123.68 M203.95 166.69 C215.43 154.2, 226.14 142.53, 241.35 123.68 M210.25 165.54 C222.75 151.46, 232.88 141.07, 241.09 130.07 M210.25 165.54 C220.79 152.49, 233.14 139.97, 241.09 130.07 M216.55 164.39 C225.5 152.35, 235.95 141.29, 242.79 134.21 M216.55 164.39 C223.66 155.6, 230.08 149.7, 242.79 134.21 M223.51 162.49 C229.02 155.17, 235.09 150.47, 242.53 140.6 M223.51 162.49 C231.55 153.45, 239.27 145.59, 242.53 140.6" stroke="#ffc9c9" stroke-width="0.5" fill="none"></path><path d="M32 0 M32 0 C99.05 0.39, 170.55 0.75, 209 0 M32 0 C88.52 0.07, 146.38 0.64, 209 0 M209 0 C230.46 -0.43, 240.92 11.18, 241 32 M209 0 C228.24 0.5, 240.46 10.03, 241 32 M241 32 C243.35 67.72, 242.38 107.03, 241 132 M241 32 C240.6 60.78, 240.36 92.5, 241 132 M241 132 C241.87 154.65, 231.98 164.09, 209 164 M241 132 C238.87 152.67, 229.65 164.37, 209 164 M209 164 C141.21 163.66, 75.66 164.39, 32 164 M209 164 C140.6 164.2, 71.12 164.45, 32 164 M32 164 C9.6 165.13, 1.68 151.44, 0 132 M32 164 C11.48 162.12, -0.47 152.95, 0 132 M0 132 C0.35 105.76, 1.94 78.2, 0 32 M0 132 C0.99 103.31, -0.6 74.69, 0 32 M0 32 C1.72 11.3, 11.37 1.74, 32 0 M0 32 C-0.94 11.35, 12.32 -0.46, 32 0" stroke="#e03131" stroke-width="1" fill="none"></path></g><g transform="translate(1576.1563908118524 385.41803765552413) rotate(0 74.15991973876953 12.5)"><text x="74.15991973876953" y="0" font-family="Virgil, Segoe UI Emoji" font-size="20px" fill="#e03131" text-anchor="middle" style="white-space: pre;" direction="ltr" dominant-baseline="text-before-edge">Throw an error</text></g><g mask="url(#mask-Sia0wGtYtCJJ4BAgJXIG-)" stroke-linecap="round"><g transform="translate(1121.0684240871888 1827.753722535802) rotate(0 2.83810293563738 85.8524454855285)"><path d="M0.13 0.37 C1.18 28.97, 5.67 142.59, 6.93 171 M-1.26 -0.47 C-0.44 28.32, 4.45 143.47, 5.87 172.18" stroke="#1e1e1e" stroke-width="1" fill="none"></path></g><g transform="translate(1121.0684240871888 1827.753722535802) rotate(0 2.83810293563738 85.8524454855285)"><path d="M-5.03 144.11 C-2.86 155.24, 1 164.02, 5.8 173.32 M-6.4 144.24 C-2.42 154.1, 3.06 164.05, 5.87 171.19" stroke="#1e1e1e" stroke-width="1" fill="none"></path></g><g transform="translate(1121.0684240871888 1827.753722535802) rotate(0 2.83810293563738 85.8524454855285)"><path d="M15.47 143.18 C10.37 154.67, 6.98 163.78, 5.8 173.32 M14.1 143.31 C11.06 153.57, 9.52 163.84, 5.87 171.19" stroke="#1e1e1e" stroke-width="1" fill="none"></path></g></g><mask id="mask-Sia0wGtYtCJJ4BAgJXIG-"><rect x="0" y="0" fill="#fff" width="1228.2247154108954" height="2099.4488567264243"></rect><rect x="1112.6665816508976" y="1901.101289631113" fill="#000" width="23.959976196289062" height="25" opacity="1"></rect></mask><g transform="translate(1112.6665816508976 1901.101289631113) rotate(0 11.23994537192857 12.5048783902173)"><text x="11.979988098144531" y="0" font-family="Virgil, Segoe UI Emoji" font-size="20px" fill="#1e1e1e" text-anchor="middle" style="white-space: pre;" direction="ltr" dominant-baseline="text-before-edge">No</text></g><g mask="url(#mask-nrjGFAIoofUR0LrjY5GX_)" stroke-linecap="round"><g transform="translate(1112.9190743518575 530.1213944916581) rotate(0 1.7212366243616088 101.85271692354672)"><path d="M0.23 0.63 C0.9 34.36, 3.97 168.79, 4.56 202.71 M-1.11 -0.08 C-0.6 33.74, 3.19 170.09, 3.85 203.79" stroke="#1e1e1e" stroke-width="1" fill="none"></path></g><g transform="translate(1112.9190743518575 530.1213944916581) rotate(0 1.7212366243616088 101.85271692354672)"><path d="M-6.03 176.62 C-4.71 184.87, 1.41 196.61, 4 203.07 M-7.62 174.9 C-4.5 183.73, -1.49 190.51, 4.34 203.49" stroke="#1e1e1e" stroke-width="1" fill="none"></path></g><g transform="translate(1112.9190743518575 530.1213944916581) rotate(0 1.7212366243616088 101.85271692354672)"><path d="M14.48 176.12 C8.76 184.58, 7.83 196.5, 4 203.07 M12.9 174.4 C10.54 183.31, 8.08 190.22, 4.34 203.49" stroke="#1e1e1e" stroke-width="1" fill="none"></path></g></g><mask id="mask-nrjGFAIoofUR0LrjY5GX_"><rect x="0" y="0" fill="#fff" width="1217.0145757313076" height="833.7122171779033"></rect><rect x="1098.9068427417787" y="619.4168058347805" fill="#000" width="32.119964599609375" height="25" opacity="1"></rect></mask><g transform="translate(1098.9068427417787 619.4168058347805) rotate(0 15.733468234441261 12.557305580424327)"><text x="16.059982299804688" y="0" font-family="Virgil, Segoe UI Emoji" font-size="20px" fill="#1e1e1e" text-anchor="middle" style="white-space: pre;" direction="ltr" dominant-baseline="text-before-edge">Yes</text></g><g mask="url(#mask-itkr8qiY0kZnEnUo6ZS4d)" stroke-linecap="round"><g transform="translate(1131.8318247395464 1046.6423704624804) rotate(0 -6.396592386166958 44.2973047283574)"><path d="M-1.16 -1.03 C-3.25 13.97, -10.26 74.4, -11.99 89.62 M0.43 1.05 C-1.92 15.71, -11.09 73.19, -13.23 87.77" stroke="#1e1e1e" stroke-width="1" fill="none"></path></g><g transform="translate(1131.8318247395464 1046.6423704624804) rotate(0 -6.396592386166958 44.2973047283574)"><path d="M-20.79 57.43 C-16.25 68.48, -13.1 78.02, -11.86 89.67 M-19.3 58.58 C-18.33 65.57, -17.4 72.15, -13.33 88.52" stroke="#1e1e1e" stroke-width="1" fill="none"></path></g><g transform="translate(1131.8318247395464 1046.6423704624804) rotate(0 -6.396592386166958 44.2973047283574)"><path d="M-0.51 60.55 C-3.04 70.31, -6.96 78.77, -11.86 89.67 M0.99 61.71 C-2.63 67.95, -6.3 73.82, -13.33 88.52" stroke="#1e1e1e" stroke-width="1" fill="none"></path></g></g><mask id="mask-itkr8qiY0kZnEnUo6ZS4d"><rect x="0" y="0" fill="#fff" width="1243.267488050241" height="1235.7420921216608"></rect><rect x="1110.0540107843944" y="1078.6922312920706" fill="#000" width="32.119964599609375" height="25" opacity="1"></rect></mask><g transform="translate(1110.0540107843935 1078.6922312920706) rotate(0 15.381221568984984 12.247443898767187)"><text x="16.059982299804688" y="0" font-family="Virgil, Segoe UI Emoji" font-size="20px" fill="#1e1e1e" text-anchor="middle" style="white-space: pre;" direction="ltr" dominant-baseline="text-before-edge">Yes</text></g><g mask="url(#mask-U4Ny3E34hGtQlsslb7bjq)" stroke-linecap="round"><g transform="translate(1132.7474918452117 1437.0334557271822) rotate(0 -3.965069112061883 38.22350950882196)"><path d="M-0.12 0.89 C-1.27 13.49, -6.54 63.81, -7.81 76.13 M-1.64 0.31 C-2.33 12.54, -4.29 61.86, -5.49 74.47" stroke="#1e1e1e" stroke-width="1" fill="none"></path></g><g transform="translate(1132.7474918452117 1437.0334557271822) rotate(0 -3.965069112061883 38.22350950882196)"><path d="M-12.45 44.43 C-10.45 51.03, -10.68 57.5, -5.08 74.27 M-14.82 46.66 C-10.94 54.35, -10.03 62.11, -5.15 73.57" stroke="#1e1e1e" stroke-width="1" fill="none"></path></g><g transform="translate(1132.7474918452117 1437.0334557271822) rotate(0 -3.965069112061883 38.22350950882196)"><path d="M8.03 45.74 C5.43 52.02, 0.61 58.21, -5.08 74.27 M5.66 47.97 C3.76 55.34, -1.1 62.74, -5.15 73.57" stroke="#1e1e1e" stroke-width="1" fill="none"></path></g></g><mask id="mask-U4Ny3E34hGtQlsslb7bjq"><rect x="0" y="0" fill="#fff" width="1239.807131610295" height="1612.2892874941654"></rect><rect x="1117.237683864525" y="1462.161371610674" fill="#000" width="23.959976196289062" height="25" opacity="1"></rect></mask><g transform="translate(1117.2376838645241 1462.161371610674) rotate(0 11.54473886862479 13.095593625330139)"><text x="11.979988098144531" y="0" font-family="Virgil, Segoe UI Emoji" font-size="20px" fill="#1e1e1e" text-anchor="middle" style="white-space: pre;" direction="ltr" dominant-baseline="text-before-edge">No</text></g><g mask="url(#mask-ySXysMNR1wK3gLRd3Jv3y)" stroke-linecap="round"><g transform="translate(1311.079150812051 410.2909453354514) rotate(0 94.17582890697622 -1.5710285041936913)"><path d="M0.26 0.41 C31.36 0.31, 155.95 -1.08, 187.27 -1.62 M-1.07 -0.42 C30.33 -0.81, 158.01 -3.29, 189.42 -3.55" stroke="#1e1e1e" stroke-width="1" fill="none"></path></g><g transform="translate(1311.079150812051 410.2909453354514) rotate(0 94.17582890697622 -1.5710285041936913)"><path d="M162.06 5.32 C172.11 2.99, 180.05 -0.41, 187.58 -4.39 M161.63 6.57 C171.73 3.62, 182.67 -1.93, 189.73 -4.13" stroke="#1e1e1e" stroke-width="1" fill="none"></path></g><g transform="translate(1311.079150812051 410.2909453354514) rotate(0 94.17582890697622 -1.5710285041936913)"><path d="M161.76 -15.2 C171.74 -10.19, 179.8 -6.27, 187.58 -4.39 M161.33 -13.94 C171.55 -9.14, 182.6 -6.92, 189.73 -4.13" stroke="#1e1e1e" stroke-width="1" fill="none"></path></g></g><mask id="mask-ySXysMNR1wK3gLRd3Jv3y"><rect x="0" y="0" fill="#fff" width="1599.432820920404" height="512.2882259939606"></rect><rect x="1393.2759977680835" y="396.7923050061968" fill="#000" width="23.959976196289062" height="25" opacity="1"></rect></mask><g transform="translate(1393.2759977680835 396.7923050061968) rotate(0 11.978981950943762 11.927611825060922)"><text x="11.979988098144531" y="0" font-family="Virgil, Segoe UI Emoji" font-size="20px" fill="#1e1e1e" text-anchor="middle" style="white-space: pre;" direction="ltr" dominant-baseline="text-before-edge">No</text></g><g stroke-linecap="round" transform="translate(1464.1731736183028 822.2022251679555) rotate(0 172.22682202429405 70.85280652898177)"><path d="M32 0 M32 0 C131.75 2.05, 232.57 0.29, 312.45 0 M32 0 C95.6 0.61, 157.1 0.36, 312.45 0 M312.45 0 C333.13 1.5, 343.24 10.99, 344.45 32 M312.45 0 C332.73 1.69, 346.63 12.15, 344.45 32 M344.45 32 C342.97 51.26, 345.71 70.64, 344.45 109.71 M344.45 32 C343.89 55.73, 345.18 78.34, 344.45 109.71 M344.45 109.71 C343.56 129.42, 334.17 140.84, 312.45 141.71 M344.45 109.71 C346.69 130.51, 333.03 143.71, 312.45 141.71 M312.45 141.71 C201.46 139.79, 91.44 142.1, 32 141.71 M312.45 141.71 C223.2 142.53, 133.09 142.8, 32 141.71 M32 141.71 C10.06 140.04, -1.84 129.58, 0 109.71 M32 141.71 C11.56 139.56, 0.63 130.15, 0 109.71 M0 109.71 C1.07 83.92, -0.62 60.64, 0 32 M0 109.71 C1.01 86.86, 1.6 63.14, 0 32 M0 32 C-1.07 9.12, 12.05 -0.75, 32 0 M0 32 C-2.28 11.83, 10.38 -0.12, 32 0" stroke="#1e1e1e" stroke-width="1" fill="none"></path></g><g transform="translate(1502.3501604375188 880.5550316969375) rotate(0 134.04983520507812 12.5)"><text x="134.04983520507812" y="0" font-family="Virgil, Segoe UI Emoji" font-size="20px" fill="#1e1e1e" text-anchor="middle" style="white-space: pre;" direction="ltr" dominant-baseline="text-before-edge">retrieve approval signature</text></g><g stroke-linecap="round" transform="translate(1374.9792444777286 1223.527725843409) rotate(0 172.22682202429405 70.85280652898177)"><path d="M32 0 M32 0 C133.88 -0.19, 233.32 -2.63, 312.45 0 M32 0 C136.42 1.96, 240.68 1.15, 312.45 0 M312.45 0 C332.22 0.32, 344.2 12.55, 344.45 32 M312.45 0 C336.01 2.17, 345.49 12.84, 344.45 32 M344.45 32 C344.93 51.78, 345.7 68.49, 344.45 109.71 M344.45 32 C344.76 55.77, 344.73 78.4, 344.45 109.71 M344.45 109.71 C343.97 132.65, 332.78 143.11, 312.45 141.71 M344.45 109.71 C342.57 132.42, 334.68 142.82, 312.45 141.71 M312.45 141.71 C238.76 141.51, 163.14 141.22, 32 141.71 M312.45 141.71 C205.78 140.99, 98.92 140.17, 32 141.71 M32 141.71 C11.33 142.77, 1 132.54, 0 109.71 M32 141.71 C10.07 142.63, -1.81 130.47, 0 109.71 M0 109.71 C-2.62 81.23, 0.41 49.07, 0 32 M0 109.71 C-1.23 85.48, -0.3 61.34, 0 32 M0 32 C1.8 10.54, 9.25 -1.34, 32 0 M0 32 C1.93 10.49, 11.11 -1.54, 32 0" stroke="#1e1e1e" stroke-width="1" fill="none"></path></g><g transform="translate(1397.266231907296 1281.880532372391) rotate(0 149.93983459472656 12.5)"><text x="149.93983459472656" y="0" font-family="Virgil, Segoe UI Emoji" font-size="20px" fill="#1e1e1e" text-anchor="middle" style="white-space: pre;" direction="ltr" dominant-baseline="text-before-edge">Borrow/withdraw to the bulker</text></g><g stroke-linecap="round" transform="translate(1410.2817052800783 1592.0530211955988) rotate(0 172.22682202429405 70.85280652898177)"><path d="M32 0 M32 0 C113.55 1.75, 195.87 2.05, 312.45 0 M32 0 C111.94 -1, 191.62 -0.71, 312.45 0 M312.45 0 C335.21 1.89, 346.06 11.51, 344.45 32 M312.45 0 C332.85 -1.82, 343.97 10.43, 344.45 32 M344.45 32 C345.84 48.05, 343.59 66.15, 344.45 109.71 M344.45 32 C344.17 49.93, 344.6 65.83, 344.45 109.71 M344.45 109.71 C345.95 130.93, 333.15 141, 312.45 141.71 M344.45 109.71 C345.01 131.51, 332.38 143.54, 312.45 141.71 M312.45 141.71 C202.4 142.18, 93.44 144.16, 32 141.71 M312.45 141.71 C215.99 142.17, 118.63 141.86, 32 141.71 M32 141.71 C9.27 140.54, 0.79 132.32, 0 109.71 M32 141.71 C11.9 141.82, 2.05 132.13, 0 109.71 M0 109.71 C0.87 90.25, -0.87 75.05, 0 32 M0 109.71 C0.44 87.62, -0.28 66.25, 0 32 M0 32 C0.29 12.34, 12.25 1.78, 32 0 M0 32 C-0.6 10.5, 11.28 -1.19, 32 0" stroke="#1e1e1e" stroke-width="1" fill="none"></path></g><g transform="translate(1479.1886420504661 1650.4058277245808) rotate(0 103.31988525390625 12.5)"><text x="103.31988525390625" y="0" font-family="Virgil, Segoe UI Emoji" font-size="20px" fill="#1e1e1e" text-anchor="middle" style="white-space: pre;" direction="ltr" dominant-baseline="text-before-edge">Borrow to the bulker</text></g><g stroke-linecap="round" transform="translate(1912.7497537279796 1584.7112403598903) rotate(0 172.22682202429405 70.85280652898177)"><path d="M32 0 M32 0 C90.2 -0.97, 146.98 -2.5, 312.45 0 M32 0 C134.29 0.68, 237.53 -0.09, 312.45 0 M312.45 0 C332.99 0.86, 342.72 11, 344.45 32 M312.45 0 C334.19 1.51, 346.01 12.1, 344.45 32 M344.45 32 C345 63.4, 345.62 93.02, 344.45 109.71 M344.45 32 C344.6 57.02, 343.84 81.86, 344.45 109.71 M344.45 109.71 C342.9 130.55, 332.81 141.11, 312.45 141.71 M344.45 109.71 C345.37 132.95, 332.27 141.7, 312.45 141.71 M312.45 141.71 C246.51 141.45, 181.42 143.81, 32 141.71 M312.45 141.71 C225.7 142.34, 139.33 142.75, 32 141.71 M32 141.71 C11.09 143.15, 1.97 130.76, 0 109.71 M32 141.71 C9.57 141.11, -0.26 129.39, 0 109.71 M0 109.71 C-0.17 80.62, -0.41 50.15, 0 32 M0 109.71 C0.91 86.51, 1.26 64.18, 0 32 M0 32 C-0.16 10.33, 11.37 0.21, 32 0 M0 32 C-1.14 8.64, 8.56 -0.47, 32 0" stroke="#1e1e1e" stroke-width="1" fill="none"></path></g><g transform="translate(1927.1867655716096 1630.5640468888723) rotate(0 157.7898101806636 25)"><text x="157.78981018066406" y="0" font-family="Virgil, Segoe UI Emoji" font-size="20px" fill="#1e1e1e" text-anchor="middle" style="white-space: pre;" direction="ltr" dominant-baseline="text-before-edge">Defer skim to the end</text><text x="157.78981018066406" y="25" font-family="Virgil, Segoe UI Emoji" font-size="20px" fill="#1e1e1e" text-anchor="middle" style="white-space: pre;" direction="ltr" dominant-baseline="text-before-edge">(probably not the right solution)</text></g><g stroke-linecap="round" transform="translate(1780.6649178626576 1222.627294069719) rotate(0 172.22682202429405 70.85280652898177)"><path d="M32 0 M32 0 C115.86 -0.97, 201.73 -2.82, 312.45 0 M32 0 C128.85 1.87, 225.07 1.75, 312.45 0 M312.45 0 C332.03 1.6, 344.74 8.99, 344.45 32 M312.45 0 C332.91 1.81, 345.39 8.53, 344.45 32 M344.45 32 C343.45 56.12, 345.53 77.49, 344.45 109.71 M344.45 32 C345.69 49.51, 344.5 64.77, 344.45 109.71 M344.45 109.71 C346.11 131.08, 332.76 142.33, 312.45 141.71 M344.45 109.71 C342.32 129.76, 332.44 142.84, 312.45 141.71 M312.45 141.71 C223.37 142.55, 134.4 141.96, 32 141.71 M312.45 141.71 C241.1 143.44, 168.52 143.23, 32 141.71 M32 141.71 C9.41 142.32, -0.44 131.01, 0 109.71 M32 141.71 C9.5 142.58, 0.84 131.52, 0 109.71 M0 109.71 C-0.94 90.24, 1.27 76.19, 0 32 M0 109.71 C0.8 89.93, -0.26 68.87, 0 32 M0 32 C0.01 11.8, 9.98 -1.81, 32 0 M0 32 C1.34 10.33, 10.02 -2.03, 32 0" stroke="#1e1e1e" stroke-width="1" fill="none"></path></g><g transform="translate(1798.7819071232798 1255.980100598701) rotate(0 154.10983276367188 37.5)"><text x="154.10983276367188" y="0" font-family="Virgil, Segoe UI Emoji" font-size="20px" fill="#1e1e1e" text-anchor="middle" style="white-space: pre;" direction="ltr" dominant-baseline="text-before-edge">add unwrap action with </text><text x="154.10983276367188" y="25" font-family="Virgil, Segoe UI Emoji" font-size="20px" fill="#1e1e1e" text-anchor="middle" style="white-space: pre;" direction="ltr" dominant-baseline="text-before-edge">maxuint256 as param, no skim </text><text x="154.10983276367188" y="50" font-family="Virgil, Segoe UI Emoji" font-size="20px" fill="#1e1e1e" text-anchor="middle" style="white-space: pre;" direction="ltr" dominant-baseline="text-before-edge">needed</text></g><g stroke-linecap="round" transform="translate(1943.9817830643224 826.752009281111) rotate(0 172.22682202429405 70.85280652898177)"><path d="M32 0 M32 0 C100.55 -3.01, 171.02 -1.68, 312.45 0 M32 0 C114 0.26, 197.95 -0.12, 312.45 0 M312.45 0 C335.08 0.08, 346.05 11.75, 344.45 32 M312.45 0 C332.69 -2.27, 344.68 11.69, 344.45 32 M344.45 32 C345.9 56.55, 344.93 82.85, 344.45 109.71 M344.45 32 C345.55 52.1, 344.86 69.76, 344.45 109.71 M344.45 109.71 C346.18 130.91, 333.62 143.18, 312.45 141.71 M344.45 109.71 C346.16 132.05, 333.93 142.69, 312.45 141.71 M312.45 141.71 C254.88 143.98, 199.28 143.96, 32 141.71 M312.45 141.71 C212.31 142.36, 113.37 141.77, 32 141.71 M32 141.71 C9.3 142.04, 1.86 129.93, 0 109.71 M32 141.71 C8.54 142.33, -0.3 129.87, 0 109.71 M0 109.71 C1.95 91.13, -0.95 71.01, 0 32 M0 109.71 C-0.98 83.23, -0.35 56.26, 0 32 M0 32 C-0.05 11.51, 9.81 -0.65, 32 0 M0 32 C-1.49 11.88, 12.36 0.81, 32 0" stroke="#1e1e1e" stroke-width="1" fill="none"></path></g><g transform="translate(2003.818735398675 885.104815810093) rotate(0 112.38986968994186 12.5)"><text x="112.3898696899414" y="0" font-family="Virgil, Segoe UI Emoji" font-size="20px" fill="#1e1e1e" text-anchor="middle" style="white-space: pre;" direction="ltr" dominant-baseline="text-before-edge">Add approval to batch</text></g><g mask="url(#mask-xVL_oYeBdDGEWgfkCPKHs)" stroke-linecap="round"><g transform="translate(1295.2164811261155 878.8844703911409) rotate(0 73.75655576358758 -1.8488145528256155)"><path d="M0.72 -0.76 C24.99 -1.56, 121.31 -4.72, 145.47 -5.16 M-0.36 1.46 C24.33 0.83, 123.7 -2.93, 147.87 -4.04" stroke="#1e1e1e" stroke-width="1" fill="none"></path></g><g transform="translate(1295.2164811261155 878.8844703911409) rotate(0 73.75655576358758 -1.8488145528256155)"><path d="M118.86 6.38 C126.8 3.26, 137.74 0.03, 146.9 -5.52 M120.61 7.97 C132.05 3.1, 141.83 -1, 147.08 -3.53" stroke="#1e1e1e" stroke-width="1" fill="none"></path></g><g transform="translate(1295.2164811261155 878.8844703911409) rotate(0 73.75655576358758 -1.8488145528256155)"><path d="M118.02 -14.13 C126.14 -11.36, 137.33 -8.7, 146.9 -5.52 M119.77 -12.53 C131.68 -9.25, 141.8 -5.19, 147.08 -3.53" stroke="#1e1e1e" stroke-width="1" fill="none"></path></g></g><mask id="mask-xVL_oYeBdDGEWgfkCPKHs"><rect x="0" y="0" fill="#fff" width="1541.282266893555" height="983.2446431006165"></rect><rect x="1356.2693859116898" y="864.2043840364031" fill="#000" width="23.959976196289062" height="25" opacity="1"></rect></mask><g transform="translate(1356.2693859116907 864.2043840364031) rotate(0 12.70365097801232 12.83127180191218)"><text x="11.979988098144531" y="0" font-family="Virgil, Segoe UI Emoji" font-size="20px" fill="#1e1e1e" text-anchor="middle" style="white-space: pre;" direction="ltr" dominant-baseline="text-before-edge">No</text></g><g stroke-linecap="round"><g transform="translate(1820.6172926179497 879.9745135685098) rotate(0 55.25816640784342 -3.9277077176368493)"><path d="M0.87 0.41 C19.21 -1.05, 92.41 -6.83, 110.65 -8.27 M-0.13 -0.42 C18.05 -1.78, 91.69 -5.93, 109.99 -7.06" stroke="#1e1e1e" stroke-width="1" fill="none"></path></g><g transform="translate(1820.6172926179497 879.9745135685098) rotate(0 55.25816640784342 -3.9277077176368493)"><path d="M83.14 5.76 C91 0.81, 100.71 -5.4, 111.56 -5.11 M81.76 4.28 C89.83 1.71, 98.49 -2.6, 110.99 -6.45" stroke="#1e1e1e" stroke-width="1" fill="none"></path></g><g transform="translate(1820.6172926179497 879.9745135685098) rotate(0 55.25816640784342 -3.9277077176368493)"><path d="M81.93 -14.72 C90.3 -12.49, 100.44 -11.51, 111.56 -5.11 M80.55 -16.21 C89.16 -12.63, 98.19 -10.79, 110.99 -6.45" stroke="#1e1e1e" stroke-width="1" fill="none"></path></g></g><mask></mask><g stroke-linecap="round"><g transform="translate(2070.237180235439 979.1684427090845) rotate(0 -454.8997539413467 80.5553952277453)"><path d="M-0.64 0.32 C-20.56 21.46, 32.65 99.31, -119.08 126.04 C-270.81 152.77, -779.31 154.88, -911.02 160.68 M1.23 -0.55 C-18.81 20.31, 32.03 97.24, -119.6 124.28 C-271.23 151.31, -777.06 155.42, -908.57 161.66" stroke="#1e1e1e" stroke-width="1" fill="none"></path></g><g transform="translate(2070.237180235439 979.1684427090845) rotate(0 -454.8997539413467 80.5553952277453)"><path d="M-880.15 151.97 C-888.96 152.76, -900.51 159.25, -909.34 161.19 M-879.98 151.47 C-890.07 155.41, -901.01 158.12, -907.67 162.57" stroke="#1e1e1e" stroke-width="1" fill="none"></path></g><g transform="translate(2070.237180235439 979.1684427090845) rotate(0 -454.8997539413467 80.5553952277453)"><path d="M-879.56 172.48 C-888.43 166.4, -900.18 166.02, -909.34 161.19 M-879.39 171.98 C-889.77 168.33, -900.93 163.45, -907.67 162.57" stroke="#1e1e1e" stroke-width="1" fill="none"></path></g></g><mask></mask><g stroke-linecap="round" transform="translate(76.9774965548786 1335.6125617087314) rotate(0 245.2597149080143 219.64370023984384)"><path d="M176.85 8.13 C194.35 -0.12, 217.8 1.65, 238.21 1.06 C258.62 0.48, 279.71 0.97, 299.3 4.61 C318.89 8.25, 337.61 14.43, 355.75 22.92 C373.89 31.42, 392.8 43.56, 408.12 55.59 C423.44 67.62, 436.33 80.29, 447.66 95.1 C459 109.92, 469.16 127.2, 476.11 144.48 C483.06 161.76, 487.52 180.74, 489.37 198.81 C491.22 216.88, 490.3 234.88, 487.22 252.9 C484.15 270.93, 479 290.08, 470.92 306.96 C462.84 323.84, 451.31 339.93, 438.74 354.19 C426.17 368.44, 411.63 381.18, 395.5 392.49 C379.38 403.8, 360.52 414.64, 341.99 422.05 C323.46 429.46, 304.43 434.17, 284.33 436.95 C264.23 439.72, 241.77 440.56, 221.38 438.7 C201 436.84, 180.84 432.05, 162.04 425.77 C143.23 419.48, 125.24 411.12, 108.54 400.98 C91.83 390.84, 75.43 378.55, 61.82 364.95 C48.21 351.35, 36.16 335.47, 26.86 319.39 C17.56 303.3, 10.42 286.01, 6.04 268.42 C1.65 250.82, -0.09 232.18, 0.57 213.83 C1.23 195.47, 4.47 175.83, 10 158.29 C15.53 140.75, 23.29 124.16, 33.73 108.59 C44.16 93.03, 58.12 78, 72.6 64.88 C87.08 51.76, 99.53 40.13, 120.61 29.86 C141.68 19.58, 181.99 7.45, 199.05 3.22 C216.1 -1.01, 222.25 0.71, 222.96 4.46 M356.76 24.17 C376.09 28.96, 392.34 43.86, 407.59 55.8 C422.83 67.74, 436.84 80.96, 448.24 95.82 C459.63 110.69, 469.21 127.63, 475.96 144.97 C482.7 162.3, 486.79 181.92, 488.71 199.84 C490.63 217.75, 490.68 234.45, 487.46 252.44 C484.24 270.43, 477.46 290.96, 469.39 307.77 C461.32 324.59, 451.37 339.35, 439.04 353.34 C426.7 367.34, 411.4 380.27, 395.37 391.75 C379.34 403.22, 361.35 414.65, 342.86 422.2 C324.38 429.74, 304.34 434.2, 284.44 437.01 C264.54 439.82, 243.76 440.86, 223.44 439.07 C203.12 437.27, 181.67 432.29, 162.54 426.23 C143.41 420.16, 125.27 412.68, 108.66 402.67 C92.05 392.67, 76.27 380.06, 62.9 366.19 C49.54 352.32, 37.85 335.62, 28.47 319.45 C19.1 303.28, 11.59 286.86, 6.65 269.16 C1.72 251.47, -1.48 231.79, -1.16 213.29 C-0.84 194.78, 2.6 175.6, 8.58 158.14 C14.57 140.69, 24.41 124.25, 34.77 108.55 C45.14 92.84, 56.78 77.1, 70.77 63.93 C84.76 50.76, 101.05 38.59, 118.72 29.51 C136.39 20.43, 157.31 14.35, 176.79 9.43 C196.27 4.51, 215.31 0.91, 235.6 -0.02 C255.88 -0.94, 278.26 -0.05, 298.51 3.87 C318.76 7.8, 347.62 19.59, 357.09 23.53 C366.56 27.47, 357.19 24.09, 355.34 27.52" stroke="#1e1e1e" stroke-width="1" fill="none"></path></g><g transform="translate(157.97259066713468 1455.4447120640762) rotate(0 164.33981323242188 100)"><text x="164.33981323242188" y="0" font-family="Virgil, Segoe UI Emoji" font-size="20px" fill="#1e1e1e" text-anchor="middle" style="white-space: pre;" direction="ltr" dominant-baseline="text-before-edge">Tricky edge case since you have </text><text x="164.33981323242188" y="25" font-family="Virgil, Segoe UI Emoji" font-size="20px" fill="#1e1e1e" text-anchor="middle" style="white-space: pre;" direction="ltr" dominant-baseline="text-before-edge">to know that the user want to </text><text x="164.33981323242188" y="50" font-family="Virgil, Segoe UI Emoji" font-size="20px" fill="#1e1e1e" text-anchor="middle" style="white-space: pre;" direction="ltr" dominant-baseline="text-before-edge">add a supply action. this is </text><text x="164.33981323242188" y="75" font-family="Virgil, Segoe UI Emoji" font-size="20px" fill="#1e1e1e" text-anchor="middle" style="white-space: pre;" direction="ltr" dominant-baseline="text-before-edge">probably a scenario to handle </text><text x="164.33981323242188" y="100" font-family="Virgil, Segoe UI Emoji" font-size="20px" fill="#1e1e1e" text-anchor="middle" style="white-space: pre;" direction="ltr" dominant-baseline="text-before-edge">later during the supply operation</text><text x="164.33981323242188" y="125" font-family="Virgil, Segoe UI Emoji" font-size="20px" fill="#1e1e1e" text-anchor="middle" style="white-space: pre;" direction="ltr" dominant-baseline="text-before-edge"></text><text x="164.33981323242188" y="150" font-family="Virgil, Segoe UI Emoji" font-size="20px" fill="#1e1e1e" text-anchor="middle" style="white-space: pre;" direction="ltr" dominant-baseline="text-before-edge">Only pertinent for withdraw </text><text x="164.33981323242188" y="175" font-family="Virgil, Segoe UI Emoji" font-size="20px" fill="#1e1e1e" text-anchor="middle" style="white-space: pre;" direction="ltr" dominant-baseline="text-before-edge">operation</text></g><g stroke-linecap="round"><g transform="translate(572.5178545304989 1564.5216289562113) rotate(0 200.19570350976983 50.4336937264477)"><path d="M0.48 0.93 C67.23 17.37, 334.19 82.66, 401.12 99.04 M-0.73 0.37 C65.8 16.97, 333.09 83.8, 400.17 100.5" stroke="#1e1e1e" stroke-width="1" fill="none"></path></g></g><mask></mask><g mask="url(#mask-jJsh1ZFvsCXc7ljGiNTfc)" stroke-linecap="round"><g transform="translate(1299.2652654250214 1657.375074930259) rotate(0 46.861778384837635 -1.2523619156040695)"><path d="M-0.59 0.05 C14.8 -0.36, 76.6 -2.37, 92.15 -2.55 M1.3 -0.98 C17.06 -1.25, 79.24 -1.14, 94.32 -1.5" stroke="#1e1e1e" stroke-width="1" fill="none"></path></g><g transform="translate(1299.2652654250214 1657.375074930259) rotate(0 46.861778384837635 -1.2523619156040695)"><path d="M66.3 7.28 C72.69 5.41, 83.17 1.73, 92.93 -2.79 M66.07 8.84 C72.35 7.19, 78.74 3.78, 95.26 -1.4" stroke="#1e1e1e" stroke-width="1" fill="none"></path></g><g transform="translate(1299.2652654250214 1657.375074930259) rotate(0 46.861778384837635 -1.2523619156040695)"><path d="M66.11 -13.24 C72.54 -9.26, 83.08 -7.09, 92.93 -2.79 M65.88 -11.68 C72.12 -8.57, 78.56 -7.24, 95.26 -1.4" stroke="#1e1e1e" stroke-width="1" fill="none"></path></g></g><mask id="mask-jJsh1ZFvsCXc7ljGiNTfc"><rect x="0" y="0" fill="#fff" width="1492.461791634816" height="1759.000382645885"></rect><rect x="1329.803546230114" y="1644.0624210724459" fill="#000" width="32.119964599609375" height="25" opacity="1"></rect></mask><g transform="translate(1329.803546230114 1644.0624210724459) rotate(0 16.32349757974498 12.060291942209005)"><text x="16.059982299804688" y="0" font-family="Virgil, Segoe UI Emoji" font-size="20px" fill="#1e1e1e" text-anchor="middle" style="white-space: pre;" direction="ltr" dominant-baseline="text-before-edge">Yes</text></g><g stroke-linecap="round"><g transform="translate(1302.8467833676968 1289.8307482592354) rotate(0 28.859431379034504 -1.0627857382041839)"><path d="M0.85 1.09 C10.59 0.62, 48.24 -2.38, 57.87 -3.21 M-0.16 0.62 C9.48 0.38, 47.23 -1.05, 56.98 -1.65" stroke="#1e1e1e" stroke-width="1" fill="none"></path></g><g transform="translate(1302.8467833676968 1289.8307482592354) rotate(0 28.859431379034504 -1.0627857382041839)"><path d="M32.11 9.7 C37.25 7.92, 42.88 3.58, 58.32 -3.64 M30.67 9.09 C39.11 6.38, 46.31 1.97, 56.31 -1.6" stroke="#1e1e1e" stroke-width="1" fill="none"></path></g><g transform="translate(1302.8467833676968 1289.8307482592354) rotate(0 28.859431379034504 -1.0627857382041839)"><path d="M31.17 -10.06 C36.48 -6.8, 42.36 -6.09, 58.32 -3.64 M29.73 -10.68 C38.48 -7.42, 45.96 -5.86, 56.31 -1.6" stroke="#1e1e1e" stroke-width="1" fill="none"></path></g></g><mask></mask><g stroke-linecap="round"><g transform="translate(1736.68396796054 1296.3710073234488) rotate(0 19.84552652557022 -1.7682793421254246)"><path d="M0.17 0.45 C6.98 0.03, 33.97 -1.71, 40.89 -2.35 M-1.2 -0.36 C5.4 -1.12, 32.61 -3.69, 39.67 -3.99" stroke="#1e1e1e" stroke-width="1" fill="none"></path></g><g transform="translate(1736.68396796054 1296.3710073234488) rotate(0 19.84552652557022 -1.7682793421254246)"><path d="M21.45 3.62 C27.96 2.43, 31.97 -2.19, 38.33 -3.9 M20.44 3.71 C28.9 1.58, 36.53 -1.81, 39.58 -3.4" stroke="#1e1e1e" stroke-width="1" fill="none"></path></g><g transform="translate(1736.68396796054 1296.3710073234488) rotate(0 19.84552652557022 -1.7682793421254246)"><path d="M20.43 -10.55 C27.27 -7.47, 31.58 -7.81, 38.33 -3.9 M19.42 -10.47 C28.34 -6.97, 36.37 -4.73, 39.58 -3.4" stroke="#1e1e1e" stroke-width="1" fill="none"></path></g></g><mask></mask><g stroke-linecap="round"><g transform="translate(2132.36964134547 1302.911266387663) rotate(0 -137.29750483453836 493.8141765480425)"><path d="M0.49 0.7 C76.37 17.07, 390.28 -50.93, 455.32 99.33 C520.36 249.59, 600.08 756.44, 390.76 902.26 C181.44 1048.07, -601.86 962.22, -800.6 974.22 M-0.71 0.03 C74.98 17.02, 389.01 -49.67, 454.21 100.37 C519.4 250.41, 599.44 755, 390.43 900.27 C181.42 1045.54, -600.92 959.55, -799.85 972.01" stroke="#1e1e1e" stroke-width="1" fill="none"></path></g><g transform="translate(2132.36964134547 1302.911266387663) rotate(0 -137.29750483453836 493.8141765480425)"><path d="M-770.28 961.82 C-781.59 966.79, -787.52 969.92, -798.78 971.82 M-771.37 961.58 C-780.72 965.17, -792.35 969.45, -798.86 972.59" stroke="#1e1e1e" stroke-width="1" fill="none"></path></g><g transform="translate(2132.36964134547 1302.911266387663) rotate(0 -137.29750483453836 493.8141765480425)"><path d="M-770.71 982.33 C-782.09 981.06, -787.89 977.95, -798.78 971.82 M-771.81 982.1 C-780.98 978.34, -792.45 975.26, -798.86 972.59" stroke="#1e1e1e" stroke-width="1" fill="none"></path></g></g><mask></mask><g stroke-linecap="round"><g transform="translate(1769.616731004473 1652.9135597768295) rotate(0 61.17588091052585 -6.492310669924564)"><path d="M-0.04 -0.18 C20.8 -2.3, 103.15 -10.83, 123.87 -12.81 M-1.52 -1.31 C19.25 -3.22, 101.97 -9.13, 122.84 -11.24" stroke="#1e1e1e" stroke-width="1" fill="none"></path></g><g transform="translate(1769.616731004473 1652.9135597768295) rotate(0 61.17588091052585 -6.492310669924564)"><path d="M95.32 1.09 C101.26 -0.72, 108.05 -1.95, 123.92 -12.09 M96.26 0.64 C105.2 -4.13, 115.08 -7.46, 123.13 -11.88" stroke="#1e1e1e" stroke-width="1" fill="none"></path></g><g transform="translate(1769.616731004473 1652.9135597768295) rotate(0 61.17588091052585 -6.492310669924564)"><path d="M93.6 -19.36 C99.87 -17.01, 107.01 -14.09, 123.92 -12.09 M94.54 -19.81 C103.96 -17.43, 114.45 -13.6, 123.13 -11.88" stroke="#1e1e1e" stroke-width="1" fill="none"></path></g></g><mask></mask><g stroke-linecap="round"><g transform="translate(2087.6778710733424 1743.2887100447197) rotate(0 -376.67352765956093 249.19443456874046)"><path d="M-0.96 0.51 C-21.76 76.18, 0.94 372.37, -124.47 453.37 C-249.89 534.36, -648.57 480.88, -753.45 486.47 M0.73 -0.27 C-20.22 75.11, 0.55 370.24, -125.25 451.58 C-251.05 532.93, -649.37 481.68, -754.08 487.79" stroke="#1e1e1e" stroke-width="1" fill="none"></path></g><g transform="translate(2087.6778710733424 1743.2887100447197) rotate(0 -376.67352765956093 249.19443456874046)"><path d="M-724.74 478.94 C-733.87 481.67, -744.25 484.25, -753.33 488.02 M-724.86 477.43 C-734.81 480.96, -742.92 483.69, -755 488.68" stroke="#1e1e1e" stroke-width="1" fill="none"></path></g><g transform="translate(2087.6778710733424 1743.2887100447197) rotate(0 -376.67352765956093 249.19443456874046)"><path d="M-725.37 499.45 C-734.18 495.48, -744.35 491.36, -753.33 488.02 M-725.49 497.95 C-735.31 495.16, -743.22 491.58, -755 488.68" stroke="#1e1e1e" stroke-width="1" fill="none"></path></g></g><mask></mask><g stroke-linecap="round"><g transform="translate(1139.2530131740596 2135.4114023367542) rotate(0 4.198284727421196 28.926103823922404)"><path d="M-0.41 0.92 C0.63 10.44, 5.17 48.1, 6.52 57.5 M1.58 0.35 C2.97 9.47, 7.88 45.81, 8.8 55.54" stroke="#1e1e1e" stroke-width="1" fill="none"></path></g><g transform="translate(1139.2530131740596 2135.4114023367542) rotate(0 4.198284727421196 28.926103823922404)"><path d="M-2.63 28.42 C0.67 38.81, 4.65 47.52, 8.58 55.61 M-4.2 29.53 C1.12 38.17, 4.26 48.7, 7.85 55.64" stroke="#1e1e1e" stroke-width="1" fill="none"></path></g><g transform="translate(1139.2530131740596 2135.4114023367542) rotate(0 4.198284727421196 28.926103823922404)"><path d="M16.96 26.12 C13.87 37.19, 11.45 46.66, 8.58 55.61 M15.38 27.22 C13.65 36.77, 9.75 48.12, 7.85 55.64" stroke="#1e1e1e" stroke-width="1" fill="none"></path></g></g><mask></mask><g stroke-linecap="round"><g transform="translate(1112.328824932818 112.46337201547703) rotate(0 8.313095243285261 66.0353548155972)"><path d="M0.02 0.12 C2.83 22.09, 15.37 111.06, 18.05 132.94 M-1.42 -0.87 C1.23 21.26, 14.38 108.94, 17.72 131.12" stroke="#1e1e1e" stroke-width="1" fill="none"></path></g><g transform="translate(1112.328824932818 112.46337201547703) rotate(0 8.313095243285261 66.0353548155972)"><path d="M3.59 106.71 C10.33 114.04, 13.47 126.05, 18.65 132.97 M3.85 104.74 C6.28 109.96, 8.81 116.83, 17.53 131.78" stroke="#1e1e1e" stroke-width="1" fill="none"></path></g><g transform="translate(1112.328824932818 112.46337201547703) rotate(0 8.313095243285261 66.0353548155972)"><path d="M23.88 103.67 C22.54 112.22, 17.57 125.45, 18.65 132.97 M24.14 101.7 C22.01 107.76, 19.97 115.3, 17.53 131.78" stroke="#1e1e1e" stroke-width="1" fill="none"></path></g></g><mask></mask></svg>